<svg width="50" height="48" viewBox="0 0 50 48" fill="none" xmlns="http://www.w3.org/2000/svg">
<path fill-rule="evenodd" clip-rule="evenodd" d="M25 0.368652C26.4793 0.368652 27.6786 1.56789 27.6786 3.04723V6.76247C33.3241 7.37069 38.625 9.88826 42.6775 13.941C47.3661 18.6294 50 24.9883 50 31.6187C50 33.0395 49.4357 34.4021 48.4311 35.4068C47.4264 36.4115 46.0636 36.9758 44.6429 36.9758H5.35714C3.93632 36.9758 2.57373 36.4115 1.56907 35.4068C0.564411 34.4021 0 33.0395 0 31.6187C0 24.9883 2.63392 18.6294 7.32232 13.941C11.375 9.88829 16.6759 7.37069 22.3214 6.76247V3.04723C22.3214 1.56789 23.5207 0.368652 25 0.368652ZM2.788 41.964C1.30866 41.964 0.109427 43.1633 0.109427 44.6426C0.109427 46.1219 1.30866 47.3212 2.788 47.3212H47.2118C48.6911 47.3212 49.8904 46.1219 49.8904 44.6426C49.8904 43.1633 48.6911 41.964 47.2118 41.964H2.788Z" fill="#3E5944"/>
<path d="M35.2143 15C35.6517 15 36.0738 15.1249 36.4007 15.351C36.7275 15.5771 36.9363 15.8886 36.9875 16.2265L37 16.389V38.6126C36.9995 38.9666 36.8252 39.3071 36.5128 39.5645C36.2003 39.822 35.7733 39.9769 35.3189 39.9976C34.8646 40.0184 34.4172 39.9034 34.0682 39.6762C33.7191 39.4489 33.4948 39.1266 33.4411 38.7751L33.4286 38.6126V31.6677H31.6429C31.2055 31.6676 30.7833 31.5427 30.4565 31.3167C30.1296 31.0906 29.9208 30.7791 29.8696 30.4412L29.8571 30.2787V21.9449C29.8571 18.8752 32.5357 15 35.2143 15ZM24.5 15C24.9374 15 25.3595 15.1249 25.6864 15.351C26.0132 15.5771 26.222 15.8886 26.2732 16.2265L26.2857 16.389V23.3338C26.2855 24.5657 25.7592 25.7626 24.7896 26.7365C23.8199 27.7105 22.4618 28.4063 20.9286 28.7147V38.6126C20.9281 38.9666 20.7538 39.3071 20.4413 39.5645C20.1289 39.822 19.7019 39.9769 19.2475 39.9976C18.7931 40.0184 18.3458 39.9034 17.9967 39.6762C17.6477 39.4489 17.4234 39.1266 17.3696 38.7751L17.3571 38.6126V28.7147C15.8847 28.4187 14.5722 27.7649 13.6103 26.8487C12.6484 25.9324 12.0874 24.8013 12.0089 23.62L12 23.3338V16.389C12.0005 16.035 12.1748 15.6944 12.4872 15.437C12.7997 15.1796 13.2267 15.0247 13.6811 15.0039C14.1354 14.9832 14.5828 15.0982 14.9318 15.3254C15.2809 15.5526 15.5052 15.8749 15.5589 16.2265L15.5714 16.389V23.3338C15.5714 23.8215 15.7365 24.3005 16.0499 24.7228C16.3634 25.1451 16.8142 25.4957 17.3571 25.7396V16.389C17.3576 16.035 17.5319 15.6944 17.8444 15.437C18.1568 15.1796 18.5838 15.0247 19.0382 15.0039C19.4926 14.9832 19.94 15.0982 20.289 15.3254C20.638 15.5526 20.8623 15.8749 20.9161 16.2265L20.9286 16.389L20.9304 25.7396C21.4287 25.5155 21.85 25.2011 22.1584 24.8231C22.4669 24.4451 22.6533 24.0147 22.7018 23.5686L22.7143 23.3338V16.389C22.7143 16.0206 22.9024 15.6673 23.2373 15.4068C23.5722 15.1463 24.0264 15 24.5 15Z" fill="#EDBCBE"/>
</svg>
