<svg width="50" height="50" viewBox="0 0 50 50" fill="none" xmlns="http://www.w3.org/2000/svg">
<path fill-rule="evenodd" clip-rule="evenodd" d="M25 0.368896C26.4793 0.368896 27.6786 1.56813 27.6786 3.04747V6.76271C33.3241 7.37093 38.625 9.8885 42.6775 13.9412C47.3661 18.6296 50 24.9885 50 31.6189C50 33.0397 49.4357 34.4023 48.4311 35.407C47.4264 36.4117 46.0636 36.976 44.6429 36.976H5.35714C3.93632 36.976 2.57373 36.4117 1.56907 35.407C0.564411 34.4023 0 33.0397 0 31.6189C0 24.9885 2.63392 18.6296 7.32232 13.9412C11.375 9.88853 16.6759 7.37093 22.3214 6.76271V3.04747C22.3214 1.56813 23.5207 0.368896 25 0.368896ZM2.788 41.9642C1.30866 41.9642 0.109427 43.1635 0.109427 44.6428C0.109427 46.1221 1.30866 47.3214 2.788 47.3214H47.2118C48.6911 47.3214 49.8904 46.1221 49.8904 44.6428C49.8904 43.1635 48.6911 41.9642 47.2118 41.9642H2.788Z" fill="#3E5944"/>
<path d="M34.4268 32H28.3788L27.2908 27.392C27.2481 27.2213 27.1734 26.9333 27.0668 26.528C26.9814 26.1013 26.8748 25.792 26.7468 25.6C26.6188 25.3867 26.4374 25.248 26.2028 25.184C25.6054 25.2053 24.7308 25.216 23.5788 25.216V32H17.8188V13.92C20.4001 13.728 22.8108 13.632 25.0508 13.632C27.0774 13.632 28.7201 13.8027 29.9788 14.144C31.2374 14.464 32.1761 15.0293 32.7948 15.84C33.4348 16.6293 33.7548 17.7173 33.7548 19.104C33.7548 20.4053 33.4561 21.4293 32.8588 22.176C32.2614 22.9013 31.3014 23.3387 29.9788 23.488V23.68C30.7254 23.744 31.3441 23.9893 31.8348 24.416C32.3468 24.8213 32.6881 25.344 32.8588 25.984L34.4268 32ZM23.5788 21.6C23.7708 21.6213 24.1441 21.632 24.6988 21.632C26.3414 21.632 27.3014 21.4933 27.5788 21.216C27.8348 20.96 27.9628 20.3627 27.9628 19.424C27.9628 18.5493 27.7281 17.952 27.2588 17.632C26.8108 17.312 26.0641 17.152 25.0188 17.152C24.7841 17.152 24.3041 17.1733 23.5788 17.216V21.6Z" fill="#EDBCBE"/>
</svg>
